<svg width="1359" height="586" viewBox="0 0 1359 586" fill="none" xmlns="http://www.w3.org/2000/svg">
<rect x="103.061" y="0.95369" width="590.453" height="229.007" fill="white"/>
<path d="M103.063 229.961H693.514L561.076 285.144H0.975098L103.063 229.961Z" fill="#DC4D8B"/>
<path d="M0.975098 56.1355L103.063 0.95314V229.96L0.975098 285.142V56.1355Z" fill="#65FF8F"/>
<path d="M169.595 51.0311H260.43V75.6361H194.2V106.346H253.77V130.766H194.2V184.231H169.595V51.0311ZM387.272 184.231H359.522L335.657 136.871H314.197V184.231H289.592V51.0311H344.167C365.627 51.0311 385.977 71.1961 385.977 94.1361C385.977 110.786 375.247 125.771 361.187 132.801L387.272 184.231ZM344.167 75.6361H314.197V112.451H344.167C353.787 112.451 361.372 103.756 361.372 94.1361C361.372 84.5161 353.787 75.6361 344.167 75.6361ZM414.467 51.0311H507.522V75.6361H439.072V105.421H500.492V129.841H439.072V159.626H507.522V184.231H414.467V51.0311ZM539.342 51.0311H632.397V75.6361H563.947V105.421H625.367V129.841H563.947V159.626H632.397V184.231H539.342V51.0311Z" fill="black"/>
<path d="M167.542 417.846H1256.64L1160.42 457.937H93.3745L167.542 417.846Z" fill="#DC4D8B"/>
<path d="M167.532 252.59H1256.64V417.786H167.463L167.532 252.59Z" fill="#65FF8F"/>
<path d="M93.3799 292.662L167.545 252.581L167.546 417.846L93.6333 457.936L93.3799 292.662Z" fill="white"/>
<path d="M301.142 382.484H282.38L273.129 358.51H237.428L228.178 382.484H209.415L245.898 288.673H264.79L301.142 382.484ZM246.94 334.015L243.683 342.484H266.875L263.618 334.015C260.491 325.937 258.015 319.031 255.279 311.474H255.148C252.673 319.031 250.197 325.937 246.94 334.015ZM358.876 383.266C332.557 383.266 311.449 361.898 311.449 335.579C311.449 309.259 332.557 287.891 358.876 287.891C382.72 287.891 397.704 306.002 400.57 322.028H382.59C379.723 312.256 369.3 305.22 358.876 305.22C342.068 305.22 328.778 318.771 328.778 335.579C328.778 352.386 342.068 365.937 358.876 365.937C369.821 365.937 379.463 359.813 382.72 349.52H400.7C397.704 367.24 382.329 383.266 358.876 383.266ZM464.129 383.266C437.81 383.266 416.702 361.898 416.702 335.579C416.702 309.259 437.81 287.891 464.129 287.891C487.973 287.891 502.957 306.002 505.824 322.028H487.843C484.976 312.256 474.553 305.22 464.129 305.22C447.321 305.22 434.031 318.771 434.031 335.579C434.031 352.386 447.321 365.937 464.129 365.937C475.074 365.937 484.716 359.813 487.973 349.52H505.954C502.957 367.24 487.582 383.266 464.129 383.266ZM526.646 288.673H592.184V306.002H543.975V326.979H587.233V344.178H543.975V365.155H592.184V382.484H526.646V288.673ZM610.165 349.65H627.624C627.755 360.465 634.66 366.589 644.953 366.589C654.335 366.589 658.895 360.856 658.895 355.253C658.895 349.781 654.856 345.611 647.95 343.917L637.005 341.181C621.761 337.403 612.771 327.5 612.771 314.862C612.771 298.966 627.364 287.891 644.041 287.891C662.283 287.891 673.748 301.832 673.748 317.989H656.68C656.68 310.171 651.208 304.438 643.26 304.438C635.181 304.438 630.621 309.911 630.621 314.992C630.621 318.771 632.706 322.679 639.742 324.503L650.426 327.24C668.016 331.67 676.745 340.53 676.745 354.992C676.745 371.67 663.586 383.266 644.953 383.266C626.061 383.266 610.295 370.497 610.165 349.65ZM692.26 349.65H709.72C709.85 360.465 716.756 366.589 727.049 366.589C736.43 366.589 740.991 360.856 740.991 355.253C740.991 349.781 736.951 345.611 730.046 343.917L719.101 341.181C703.857 337.403 694.866 327.5 694.866 314.862C694.866 298.966 709.459 287.891 726.137 287.891C744.378 287.891 755.844 301.832 755.844 317.989H738.776C738.776 310.171 733.303 304.438 725.355 304.438C717.277 304.438 712.717 309.911 712.717 314.992C712.717 318.771 714.801 322.679 721.837 324.503L732.521 327.24C750.111 331.67 758.841 340.53 758.841 354.992C758.841 371.67 745.681 383.266 727.049 383.266C708.156 383.266 692.391 370.497 692.26 349.65ZM907.382 338.184L920.412 288.673H938.132L912.464 382.484H894.614L881.193 332.973C879.76 327.761 877.936 320.204 876.763 314.862H876.633C875.33 320.334 873.506 327.631 872.073 332.973L858.652 382.484H840.802L815.004 288.673H832.724L846.014 338.184C847.317 343.136 848.88 350.432 849.923 355.644H850.053C851.226 350.432 852.919 343.136 854.222 338.184L867.643 288.673H885.493L898.913 338.184C900.216 343.136 902.171 350.562 903.343 355.644H903.474C904.386 350.432 906.08 343.136 907.382 338.184ZM955.829 288.673H1021.37V306.002H973.158V326.979H1016.42V344.178H973.158V365.155H1021.37V382.484H955.829V288.673ZM1043.78 288.673H1109.32V306.002H1061.11V326.979H1104.36V344.178H1061.11V365.155H1109.32V382.484H1043.78V288.673ZM1211.08 382.484H1189.84L1160.91 342.093L1149.06 355.774V382.484H1131.73V288.673H1149.06V331.8L1186.45 288.673H1208.86L1173.29 329.715L1211.08 382.484Z" fill="black"/>
<rect x="1300.65" y="346.668" width="57.2207" height="57.2199" fill="#65FF8F"/>
<path d="M1300.65 403.888H1357.86L1324.77 417.676H1275.14L1300.65 403.888Z" fill="#DC4D8B"/>
<path d="M1275.14 360.456L1300.65 346.668V403.888L1275.14 417.676V360.456Z" fill="#F7F7FC"/>
<path d="M1336.75 386.823C1336.75 388.046 1335.76 389.035 1334.53 389.033L1319.03 389.005C1318.42 389.039 1317.8 388.826 1317.34 388.363C1316.85 387.877 1316.64 387.221 1316.7 386.587L1316.69 371.14C1316.69 369.917 1317.68 368.925 1318.9 368.925C1320.13 368.926 1321.12 369.919 1321.12 371.143L1321.13 381.441L1339.25 363.307C1340.12 362.442 1341.52 362.442 1342.39 363.307C1343.25 364.171 1343.25 365.573 1342.39 366.437L1324.24 384.588L1334.55 384.606C1335.77 384.608 1336.76 385.601 1336.75 386.823Z" fill="#05192D"/>
<path d="M879.269 434.176H1358.05V555.808L879.271 556.526L879.269 434.176Z" fill="white"/>
<path d="M879.28 556.519L1358.05 555.807L1287.3 585.287L824.741 585.999L879.28 556.519Z" fill="#DC4D8B"/>
<path d="M824.741 463.656L879.28 434.176V556.52L824.741 586V463.656Z" fill="#65FF8F"/>
<path d="M972.532 528.245H960.292L954.257 512.605H930.967L924.932 528.245H912.692L936.492 467.045H948.817L972.532 528.245ZM937.172 496.625L935.047 502.15H950.177L948.052 496.625C946.012 491.355 944.397 486.85 942.612 481.92H942.527C940.912 486.85 939.297 491.355 937.172 496.625ZM994.433 528.755C984.658 528.755 978.368 522.805 978.368 510.225V484.385H989.673V508.865C989.673 514.05 993.328 517.45 997.918 517.45C1002.59 517.45 1006.25 513.965 1006.25 508.78V484.385H1017.55V528.245H1006.59V522.465C1004.04 526.375 999.448 528.755 994.433 528.755ZM1058.96 484.385H1070.26V526.715C1070.26 539.635 1060.57 549.155 1047.74 549.155C1034.31 549.155 1026.32 539.38 1025.81 531.22H1037.54C1038.64 535.81 1042.47 538.615 1048.08 538.615C1054.37 538.615 1058.96 533.345 1058.96 526.715V522.55C1055.56 526.545 1050.97 528.755 1045.95 528.755C1035.67 528.755 1027.25 518.725 1027.25 506.315C1027.25 493.905 1035.67 483.875 1045.95 483.875C1051.48 483.875 1055.73 486.17 1058.96 490.165V484.385ZM1048.84 517.62C1054.54 517.62 1058.96 512.52 1058.96 506.315C1058.96 500.11 1054.54 495.18 1048.84 495.18C1043.06 495.18 1038.56 500.11 1038.56 506.315C1038.56 512.52 1043.06 517.62 1048.84 517.62ZM1132.81 508.44L1121.84 517.025H1144.28V528.33H1104.25L1104.33 518.64L1126.09 500.79C1131.45 496.37 1133.32 491.695 1133.32 487.615C1133.32 482.175 1129.75 478.435 1124.39 478.435C1118.53 478.435 1114.53 483.45 1114.79 489.655H1103.4C1103.4 475.97 1111.73 467.81 1124.56 467.81C1136.55 467.81 1144.71 475.46 1144.71 487.785C1144.71 496.965 1139.27 503.425 1132.81 508.44ZM1173.35 487.87C1184.14 487.87 1192.22 496.795 1192.22 508.185C1192.22 520.085 1182.78 528.755 1170.63 528.755C1158.9 528.755 1149.46 519.915 1149.38 509.205H1160.77C1160.94 513.965 1165.7 518.13 1170.63 518.13C1176.32 518.13 1181 513.54 1181 507.675C1181 501.98 1176.75 497.135 1170.8 497.135C1165.61 497.135 1162.13 500.45 1161.19 502.32L1151.08 499.94L1154.99 468.32H1188.65V479.285H1164.25L1162.64 491.61C1164.51 490.08 1168.16 487.87 1173.35 487.87ZM1197.46 497.56H1240.3V507.505H1197.46V497.56ZM1267.01 518.13C1272.88 518.13 1277.04 513.54 1277.04 507.93C1277.04 499.6 1267.52 494.755 1259.7 500.28L1253.92 492.29L1272.45 479.285H1248.74V468.32H1286.48V479.285L1270.41 490.845C1280.95 491.185 1288.43 498.41 1288.43 508.1C1288.43 520.17 1279.51 528.755 1266.76 528.755C1254.52 528.755 1245.59 519.405 1245.59 509.375H1256.9C1257.49 514.305 1261.74 518.13 1267.01 518.13ZM1317.63 468.32V528.245H1306.33V490.335C1302.5 492.63 1297.57 493.48 1292.64 493.48H1291.88V483.025H1292.64C1301.06 483.025 1308.03 476.99 1308.03 468.32H1317.63Z" fill="black"/>
</svg>
